<!-- <?xml version="1.0" encoding="UTF-8"?> -->
<svg version="1.1" viewBox="0 0 2048 2048" width="1280" height="1280" xmlns="http://www.w3.org/2000/svg">
<path transform="translate(119,551)" d="m0 0h672l8 3 8 7 5 8 1 3v293h-92l-1-197-2-9-6-9-12-6h-489l-7 3-7 5-5 9-1 4v485l3 9 6 7 9 5 7 1 196 1 1 1v89l-1 1h-292l-10-4-7-7-5-10-1-5v-655l1-11 5-10 9-8z" fill="#FD1A05"/>
<path transform="translate(702,978)" d="m0 0h101l-3 23-4 8-11 4-8 2 13 82 10 63v17h2l1-6 11-26 18-39 16-36 11-24 9-20 12-27 6-12 4-5 8-4h25l6 3 4 6 8 38 18 89 10 50 2 11 9-27 16-39 17-42 13-32 7-18v-2l-16-4-5-4-1-2 1-14 2-13h101v11l-3 16-5 5-11 3-9 2-16 37-23 53-16 37-20 46-16 37-10 23-1 1h-45l-2-6-20-100-14-71-4-22-6 13-13 30-13 29-19 43-18 40-16 36-4 8h-46l-12-63-31-164-1-8-13-2-6-3-3-3-1-6 3-21z" fill="#010000"/>
<path transform="translate(1270,975)" d="m0 0h32l22 4 15 5 19 10 14 11 9 9 10 14 8 17 6 20 2 13v28l-3 21-5 19-6 16-10 19-10 14-11 12-9 9-13 10-17 10-17 7-17 5-24 4h-27l-19-3-14-4-15-6-14-8-11-9-8-8-8-11-8-14-7-19-4-20v-34l3-18 6-21 8-19 10-17 8-10 9-11h2l1-3 11-9 12-9 18-10 15-6 22-6zm7 42-18 2-16 5-12 6-14 10-9 9-7 10-7 12-7 19-4 17-2 17v13l3 20 5 14 7 12 6 7 12 9 13 6 12 3 8 1h21l20-4 16-7 13-9 14-14 10-15 7-17 5-21 2-13 1-17-2-17-4-14-7-14-7-9-8-7-12-7-15-5-17-2z" fill="#010000"/>
<path transform="translate(476,978)" d="m0 0h126l18 2 15 4 12 5 11 7 10 9 7 10 5 11 3 14v23l-3 16-5 15-7 14-9 11-9 9-13 9-17 8-17 5-19 3-51 1-7 58 14 2 8 3 4 4v11l-2 16-1 1h-107l2-18 2-9 5-5 10-3 14-2 1-11 22-180v-6l-16-3-6-3-3-3v-10l2-17zm75 38-2 1-10 81-1 16h43l15-3 10-4 11-8 8-11 5-11 2-8 1-12-2-14-6-12-7-6-10-5-13-3z" fill="#010000"/>
<path transform="translate(1455,978)" d="m0 0h108l-3 23-4 8-13 4-12 2-1 1-11 89-6 49-7 58 14 2 9 3 3 4v12l-2 14-1 2h-107l1-13 2-13 5-6 15-4 8-1 2-6 19-155 4-33 1-3-17-3-7-3-2-2-1-5z" fill="#010000"/>
<path transform="translate(463,1275)" d="m0 0h70l11 4 10 9 6 12 1 4v15l-4 13-7 9-9 6-7 2-8 1h-27v35l-4 1h-31l-1-1zm36 26v23h18l5-3 3-5v-7l-3-5-5-3z" fill="#FD1A05"/>
<path transform="translate(816,1269)" d="m0 0h32v116l-2 1h-22l-2-1-2-10-5 3-7 6-11 4h-11l-10-3-6-4-5-5-5-8-4-13v-23l3-12 5-9 5-5 8-5 6-2h16l9 3 7 5zm-18 53-6 3-4 8v20l3 7 4 3 3 1h7l5-3 4-5 2-7v-12l-2-7-5-6-5-2z" fill="#FD1A05"/>
<path transform="translate(1367,1299)" d="m0 0h16l8 3 6 4 5 8 2 7 1 64-3 1h-28l-2-1-1-55-3-5-4-2-8 1-5 4-2 4-1 53-19 1h-12l-1-1v-84l2-1 24 1 1 1 1 9 5-3 9-6z" fill="#FC1905"/>
<path transform="translate(868,1300)" d="m0 0 31 1 1 55 1 5 6 2 9-1 5-5 1-3 1-53 2-1h29l1 1v84l-6 1h-15l-5-1-1-2v-9l-15 10-11 4h-12l-10-4-6-5-5-8-2-7v-63z" fill="#FD1A05"/>
<path transform="translate(685,1299)" d="m0 0h22l12 3 11 6 7 8 5 10 2 8v18l-3 11-6 10-9 8-13 5-14 2-16-1-12-4-10-6-7-9-4-9-2-12v-8l3-14 5-10 8-8 12-6zm7 21-6 3-4 5-2 8v15l3 9 6 5 3 1h8l8-4 4-8v-22l-4-8-5-3-4-1z" fill="#FD1A05"/>
<path transform="translate(1241,1299)" d="m0 0h22l12 3 10 5 8 8 6 13 1 4v23l-5 13-9 10-8 5-13 4-17 1-13-2-10-4-8-6-6-7-4-8-2-9v-19l3-10 6-10 8-7 10-5zm8 21-8 4-3 4-1 4v23l3 6 5 4 4 1h8l6-3 4-5 2-10v-11l-2-9-4-5-8-3z" fill="#FD1A05"/>
<path transform="translate(1451,1299)" d="m0 0h25l13 4 8 5 6 7 2 6-1 5h-29l-4-6-2-1h-12l-4 2 1 5 9 3 19 3 12 4 8 6 5 10v12l-4 9-5 5-5 4-11 4-14 2h-10l-13-2-12-5-10-9-4-10 1-4h28l3 5v2l6 2h14l5-5-4-4-18-4-16-4-9-5-6-7-2-7v-8l3-9 6-7 12-6z" fill="#FC1904"/>
<path transform="translate(1008,1299)" d="m0 0h24l12 3 11 6 6 7 4 8 2 7v4l-2 1h-29l-4-10-5-3-4-1h-7l-8 4-3 7v22l4 8 7 3h9l8-4 2-3 2-7h29l1 4-2 9-6 10-10 8-12 4-15 2-15-1-13-4-9-6-7-8-5-12-1-4v-20l3-10 6-10 8-7 10-5z" fill="#FD1A05"/>
<path transform="translate(1098,1275)" d="m0 0h24v26h18v20l-1 1h-17l1 39 2 3 3 1 11 1 1 1v17l-3 2-12 2h-13l-9-2-6-4-6-7-1-3-1-50-10 1-1-1v-21l2-1h10l3-9 4-15z" fill="#FD1A05"/>
<path transform="translate(622,1299)" d="m0 0h16l1 1v27l-14 1-8 3-4 4-2 5-1 45-4 1h-27l-1-1v-84l25-1 2 2v10h2l2-4 8-7z" fill="#FD1A05"/>
<path transform="translate(1157,1300)" d="m0 0 31 1v84l-31 1-1-1v-84z" fill="#FD1A05"/>
<path transform="translate(1156,1269)" d="m0 0h32v21h-32z" fill="#FD1A05"/>
</svg>
